name C:\Users\u0101727\Documents\MyRepositories\upper-imu-dc\Results\main_tracking\Case_32\ABD01_angularVelocities_groundFrame.mot
datacolumns 4
datarows 141
range 4.56000000 5.96000000
endheader 
time	radius_imu_x	radius_imu_y	radius_imu_z	
          4.56000000	         -0.81789951	         -0.27161339	          0.13389277	
          4.57000000	         -0.81387331	         -0.26220057	          0.13130106	
          4.58000000	         -0.81097895	         -0.25306347	          0.13135992	
          4.59000000	         -0.80906343	         -0.24442575	          0.13203646	
          4.60000000	         -0.80795757	         -0.23657596	          0.13109275	
          4.61000000	         -0.80753463	         -0.22983333	          0.12693061	
          4.62000000	         -0.80768726	         -0.22444845	          0.11908009	
          4.63000000	         -0.80827202	         -0.22049547	          0.10829716	
          4.64000000	         -0.80908386	         -0.21782102	          0.09636251	
          4.65000000	         -0.80988687	         -0.21607625	          0.08565607	
          4.66000000	         -0.81047270	         -0.21480524	          0.07854440	
          4.67000000	         -0.81068407	         -0.21353823	          0.07665911	
          4.68000000	         -0.81036044	         -0.21185624	          0.08024073	
          4.69000000	         -0.80923075	         -0.20943130	          0.08779985	
          4.70000000	         -0.80685462	         -0.20606151	          0.09634758	
          4.71000000	         -0.80268353	         -0.20169351	          0.10224875	
          4.72000000	         -0.79623564	         -0.19641597	          0.10245084	
          4.73000000	         -0.78732385	         -0.19040551	          0.09568303	
          4.74000000	         -0.77623374	         -0.18382743	          0.08318126	
          4.75000000	         -0.76375705	         -0.17673247	          0.06857598	
          4.76000000	         -0.75104272	         -0.16901046	          0.05683600	
          4.77000000	         -0.73931797	         -0.16044428	          0.05258596	
          4.78000000	         -0.72960054	         -0.15084352	          0.05851197	
          4.79000000	         -0.72251045	         -0.14017614	          0.07456882	
          4.80000000	         -0.71821047	         -0.12861479	          0.09823326	
          4.81000000	         -0.71643614	         -0.11647638	          0.12548159	
          4.82000000	         -0.71656474	         -0.10410727	          0.15191411	
          4.83000000	         -0.71770198	         -0.09179495	          0.17357775	
          4.84000000	         -0.71879407	         -0.07975677	          0.18735268	
          4.85000000	         -0.71877861	         -0.06819862	          0.19103664	
          4.86000000	         -0.71676940	         -0.05739482	          0.18334764	
          4.87000000	         -0.71224465	         -0.04773285	          0.16399660	
          4.88000000	         -0.70519315	         -0.03968789	          0.13385501	
          4.89000000	         -0.69617617	         -0.03372730	          0.09513048	
          4.90000000	         -0.68627834	         -0.03017186	          0.05139804	
          4.91000000	         -0.67693587	         -0.02905527	          0.00732332	
          4.92000000	         -0.66965466	         -0.03003314	         -0.03200377	
          4.93000000	         -0.66567804	         -0.03238958	         -0.06200018	
          4.94000000	         -0.66570376	         -0.03515904	         -0.07947370	
          4.95000000	         -0.66973898	         -0.03733349	         -0.08316755	
          4.96000000	         -0.67712682	         -0.03808787	         -0.07385078	
          4.97000000	         -0.68672445	         -0.03695565	         -0.05402076	
          4.98000000	         -0.69717128	         -0.03391133	         -0.02735254	
          4.99000000	         -0.70716031	         -0.02935036	          0.00196329	
          5.00000000	         -0.71563519	         -0.02398274	          0.02983752	
          5.01000000	         -0.72188177	         -0.01867428	          0.05276014	
          5.02000000	         -0.72553930	         -0.01426955	          0.06815202	
          5.03000000	         -0.72657387	         -0.01142138	          0.07463915	
          5.04000000	         -0.72523384	         -0.01044710	          0.07225683	
          5.05000000	         -0.72198180	         -0.01123715	          0.06251532	
          5.06000000	         -0.71739885	         -0.01324707	          0.04822180	
          5.07000000	         -0.71207620	         -0.01559190	          0.03301001	
          5.08000000	         -0.70652488	         -0.01722645	          0.02066413	
          5.09000000	         -0.70113147	         -0.01715981	          0.01443166	
          5.10000000	         -0.69616148	         -0.01464534	          0.01650732	
          5.11000000	         -0.69177854	         -0.00930248	          0.02778175	
          5.12000000	         -0.68803976	         -0.00114457	          0.04786580	
          5.13000000	         -0.68485290	          0.00948801	          0.07532808	
          5.14000000	         -0.68191422	          0.02205483	          0.10802408	
          5.15000000	         -0.67866780	          0.03594518	          0.14340413	
          5.16000000	         -0.67433639	          0.05055941	          0.17875950	
          5.17000000	         -0.66805730	          0.06531785	          0.21142225	
          5.18000000	         -0.65910587	          0.07961253	          0.23894054	
          5.19000000	         -0.64713639	          0.09275553	          0.25924526	
          5.20000000	         -0.63235569	          0.10399557	          0.27083900	
          5.21000000	         -0.61556379	          0.11265946	          0.27305272	
          5.22000000	         -0.59803750	          0.11840562	          0.26634984	
          5.23000000	         -0.58128888	          0.12146538	          0.25250540	
          5.24000000	         -0.56677010	          0.12269305	          0.23442513	
          5.25000000	         -0.55560038	          0.12334001	          0.21554844	
          5.26000000	         -0.54838401	          0.12464920	          0.19906782	
          5.27000000	         -0.54516965	          0.12747959	          0.18731353	
          5.28000000	         -0.54554742	          0.13212748	          0.18150004	
          5.29000000	         -0.54882087	          0.13836877	          0.18178043	
          5.30000000	         -0.55417482	          0.14563553	          0.18744311	
          5.31000000	         -0.56078927	          0.15322305	          0.19714690	
          5.32000000	         -0.56788763	          0.16045656	          0.20917208	
          5.33000000	         -0.57473873	          0.16678178	          0.22166822	
          5.34000000	         -0.58064838	          0.17176998	          0.23285177	
          5.35000000	         -0.58497694	          0.17505845	          0.24112438	
          5.36000000	         -0.58720857	          0.17627755	          0.24514581	
          5.37000000	         -0.58707471	          0.17502337	          0.24393040	
          5.38000000	         -0.58469460	          0.17090917	          0.23699688	
          5.39000000	         -0.58064839	          0.16368498	          0.22452552	
          5.40000000	         -0.57590664	          0.15338802	          0.20744852	
          5.41000000	         -0.57162369	          0.14047346	          0.18741482	
          5.42000000	         -0.56887065	          0.12586296	          0.16658458	
          5.43000000	         -0.56838793	          0.11087088	          0.14726678	
          5.44000000	         -0.57040237	          0.09701303	          0.13148085	
          5.45000000	         -0.57454162	          0.08573791	          0.12054953	
          5.46000000	         -0.57988302	          0.07814698	          0.11482777	
          5.47000000	         -0.58514971	          0.07477776	          0.11363770	
          5.48000000	         -0.58901666	          0.07549678	          0.11540671	
          5.49000000	         -0.59044610	          0.07950485	          0.11793836	
          5.50000000	         -0.58896061	          0.08543815	          0.11874649	
          5.51000000	         -0.58477606	          0.09157065	          0.11544148	
          5.52000000	         -0.57875160	          0.09614069	          0.10618762	
          5.53000000	         -0.57216532	          0.09778341	          0.09019101	
          5.54000000	         -0.56637980	          0.09595703	          0.06806345	
          5.55000000	         -0.56250493	          0.09117187	          0.04183895	
          5.56000000	         -0.56116679	          0.08486679	          0.01451375	
          5.57000000	         -0.56243949	          0.07895730	         -0.01076039	
          5.58000000	         -0.56593396	          0.07526138	         -0.03148555	
          5.59000000	         -0.57100107	          0.07504177	         -0.04630968	
          5.60000000	         -0.57698558	          0.07880556	         -0.05507862	
          5.61000000	         -0.58345018	          0.08637312	         -0.05852575	
          5.62000000	         -0.59028899	          0.09713114	         -0.05778714	
          5.63000000	         -0.59768039	          0.11034617	         -0.05393843	
          5.64000000	         -0.60589934	          0.12542398	         -0.04769450	
          5.65000000	         -0.61509072	          0.14202576	         -0.03934505	
          5.66000000	         -0.62512261	          0.16000221	         -0.02892214	
          5.67000000	         -0.63556525	          0.17919416	         -0.01649685	
          5.68000000	         -0.64576251	          0.19922450	         -0.00243464	
          5.69000000	         -0.65495655	          0.21940075	          0.01253171	
          5.70000000	         -0.66244287	          0.23878071	          0.02744047	
          5.71000000	         -0.66772841	          0.25635771	          0.04135480	
          5.72000000	         -0.67063675	          0.27125222	          0.05356224	
          5.73000000	         -0.67129933	          0.28280040	          0.06358371	
          5.74000000	         -0.67002263	          0.29048292	          0.07096238	
          5.75000000	         -0.66709662	          0.29374176	          0.07495765	
          5.76000000	         -0.66266001	          0.29184632	          0.07439592	
          5.77000000	         -0.65671247	          0.28398178	          0.06789210	
          5.78000000	         -0.64926979	          0.26960098	          0.05443126	
          5.79000000	         -0.64056245	          0.24888572	          0.03403625	
          5.80000000	         -0.63115454	          0.22305874	          0.00815385	
          5.81000000	         -0.62191664	          0.19435597	         -0.02045957	
          5.82000000	         -0.61386859	          0.16564803	         -0.04830527	
          5.83000000	         -0.60795886	          0.13986345	         -0.07191682	
          5.84000000	         -0.60485378	          0.11942891	         -0.08855670	
          5.85000000	         -0.60478998	          0.10590235	         -0.09663758	
          5.86000000	         -0.60752628	          0.09986991	         -0.09579970	
          5.87000000	         -0.61238195	          0.10106043	         -0.08676410	
          5.88000000	         -0.61840961	          0.10847693	         -0.07105100	
          5.89000000	         -0.62454099	          0.12059476	         -0.05074944	
          5.90000000	         -0.62966461	          0.13547296	         -0.02848062	
          5.91000000	         -0.63291743	          0.15080633	         -0.00712404	
          5.92000000	         -0.63385288	          0.16411983	          0.01048599	
          5.93000000	         -0.63246753	          0.17324001	          0.02202678	
          5.94000000	         -0.62919149	          0.17682204	          0.02625506	
          5.95000000	         -0.62477850	          0.17481532	          0.02338774	
          5.96000000	         -0.62014204	          0.16865637	          0.01513658	
